nColumns=19
nRows=89
DataType=double
version=3
OpenSimVersion=4.1
endheader
time	ground_force_1_vx	ground_force_1_vy	ground_force_1_vz	ground_force_1_px	ground_force_1_py	ground_force_1_pz	ground_force_1_mx	ground_force_1_my	ground_force_1_mz	ground_force_2_vx	ground_force_2_vy	ground_force_2_vz	ground_force_2_px	ground_force_2_py	ground_force_2_pz	ground_force_2_mx	ground_force_2_my	ground_force_2_mz
2.35	0	0	0	-0.00181772	0	-0.000228664	0	0	0	-83.3933	1219.16	39.0285	0.944869	0	-0.338677	0	-1.91475	0
2.36	0	0	0	-0.00181775	0	-0.000228684	0	0	0	-76.4482	1225.78	44.7998	0.931545	0	-0.340273	0	-1.98468	0
2.37	0	0	0	-0.00181777	0	-0.000228705	0	0	0	-66.9169	1220.79	48.2137	0.917713	0	-0.341903	0	-1.97235	0
2.38	0	0	0	-0.00181779	0	-0.000228726	0	0	0	-53.6594	1207.65	51.1427	0.903747	0	-0.343417	0	-1.84982	0
2.39	0	0	0	-0.00181782	0	-0.000228747	0	0	0	-38.1005	1184.85	53.7218	0.890162	0	-0.344815	0	-1.54861	0
2.4	0	0	0	-0.00181784	0	-0.000228767	0	0	0	-23.4374	1148.89	54.5893	0.877338	0	-0.346179	0	-1.05285	0
2.41	0	0	0	-0.00181787	0	-0.000228788	0	0	0	-10.2662	1099.59	53.9033	0.865193	0	-0.347522	0	-0.42702	0
2.42	0	0	0	-0.00181789	0	-0.000228809	0	0	0	3.09933	1041.01	51.7375	0.853139	0	-0.348723	-0	0.230211	-0
2.43	0	0	0	-0.00181791	0	-0.00022883	0	0	0	17.1687	977.957	47.2144	0.840339	0	-0.349571	-0	0.839054	-0
2.44	0	0	0	-0.00181794	0	-0.00022885	0	0	0	32.1253	913.08	39.1039	0.826069	0	-0.349866	-0	1.34376	-0
2.45	0	0	0	-0.00181796	0	-0.000228871	0	0	0	48.389	846.276	27.023	0.810096	0	-0.349502	-0	1.67294	-0
2.46	0	0	0	-0.00181799	0	-0.000228892	0	0	0	63.6002	775.408	13.6127	0.79289	0	-0.348518	-0	1.7084	-0
2.47	0	0	0	-0.00181801	0	-0.000228912	0	0	0	73.9898	699.022	1.86535	0.775361	0	-0.347102	-0	1.33332	-0
2.48	0	0	0	-0.00181803	0	-0.000228933	0	0	0	78.5531	617.045	-8.2599	0.758175	0	-0.345545	-0	0.584138	-0
2.49	0	0	0	-0.00181806	0	-0.000228954	0	0	0	78.6275	530.045	-16.3704	0.741233	0	-0.344181	0	-0.202434	0
2.5	0	0	0	-0.00181808	0	-0.000228974	0	0	0	74.4672	439.829	-19.7047	0.723685	0	-0.343372	0	-0.484003	0
2.51	0	0	0	-0.00181811	0	-0.000228995	0	0	0	66.0928	349.697	-18.7349	0.70466	0	-0.34343	-0	0.024729	-0
2.52	0	0	0	-0.00181813	0	-0.000229015	0	0	0	54.9534	265.73	-17.3793	0.685374	0	-0.344214	-0	0.858433	-0
2.53	0	0	0	-0.00181815	0	-0.000229036	0	0	0	42.237	196.007	-15.3402	0.672296	0	-0.34433	-0	1.01396	-0
2.54	0	0	0	-0.00181818	0	-0.000229056	0	0	0	30.4794	143.906	-9.75213	0.673856	0	-0.341547	-0	0.138172	-0
2.55	0	0	0	-0.0018182	0	-0.000229077	0	0	0	0	0	0	-0.00181818	0	-0.000229203	0	0	0
2.56	0	0	0	-0.00181822	0	-0.000229097	0	0	0	0	0	0	-0.00181821	0	-0.000229224	0	0	0
2.57	0	0	0	-0.00181825	0	-0.000229117	0	0	0	0	0	0	-0.00181823	0	-0.000229246	0	0	0
2.58	0	0	0	-0.00181827	0	-0.000229137	0	0	0	0	0	0	-0.00181825	0	-0.000229267	0	0	0
2.59	0	0	0	-0.00181829	0	-0.000229157	0	0	0	0	0	0	-0.00181828	0	-0.000229289	0	0	0
2.6	0	0	0	-0.00181832	0	-0.000229178	0	0	0	0	0	0	-0.0018183	0	-0.00022931	0	0	0
2.61	40.0226	238.422	-3.89575	0.971397	0	-0.280862	-0	1.72585	-0	0	0	0	-0.00181832	0	-0.000229331	0	0	0
2.62	50.3635	473.422	-0.0459248	0.991159	0	-0.282296	-0	2.7772	-0	0	0	0	-0.00181835	0	-0.000229353	0	0	0
2.63	24.6424	714.882	28.6828	0.999173	0	-0.283393	-0	4.13975	-0	0	0	0	-0.00181837	0	-0.000229374	0	0	0
2.64	-22.8346	843.18	58.4324	1.00348	0	-0.284446	-0	4.5946	-0	0	0	0	-0.00181839	0	-0.000229395	0	0	0
2.65	-62.7886	864.598	43.0953	1.00432	0	-0.285317	-0	3.86505	-0	0	0	0	-0.00181841	0	-0.000229416	0	0	0
2.66	-87.6015	872.142	6.41446	0.999837	0	-0.28537	-0	2.55056	-0	0	0	0	-0.00181844	0	-0.000229437	0	0	0
2.67	-101.981	928.35	-12.1101	0.98895	0	-0.284173	-0	1.58044	-0	0	0	0	-0.00181846	0	-0.000229457	0	0	0
2.68	-106.464	1020.23	-18.8867	0.973653	0	-0.282363	-0	1.50484	-0	0	0	0	-0.00181848	0	-0.000229478	0	0	0
2.69	-99.4268	1108.43	-22.5407	0.957285	0	-0.280872	-0	2.16658	-0	0	0	0	-0.0018185	0	-0.000229499	0	0	0
2.7	-81.2803	1177.35	-21.9546	0.941636	0	-0.279873	-0	2.98975	-0	0	0	0	-0.00181853	0	-0.000229519	0	0	0
2.71	-59.5945	1223.28	-22.6756	0.927048	0	-0.279018	-0	3.49843	-0	0	0	0	-0.00181855	0	-0.000229539	0	0	0
2.72	-43.8056	1240.66	-25.6435	0.913444	0	-0.277947	-0	3.571	-0	0	0	0	-0.00181857	0	-0.00022956	0	0	0
2.73	-35.0395	1231.04	-31.7242	0.900644	0	-0.276514	-0	3.34341	-0	0	0	0	-0.00181859	0	-0.00022958	0	0	0
2.74	-27.7138	1205.2	-38.6872	0.888295	0	-0.274798	-0	2.9953	-0	0	0	0	-0.00181861	0	-0.0002296	0	0	0
2.75	-16.5942	1173.55	-41.625	0.875951	0	-0.273006	-0	2.63064	-0	0	0	0	-0.00181864	0	-0.00022962	0	0	0
2.76	-1.06152	1138.28	-41.1446	0.863293	0	-0.271367	-0	2.28415	-0	0	0	0	-0.00181866	0	-0.00022964	0	0	0
2.77	14.5029	1095.91	-38.7929	0.850138	0	-0.270043	-0	1.97082	-0	0	0	0	-0.00181868	0	-0.000229659	0	0	0
2.78	28.4951	1045.95	-36.0899	0.836255	0	-0.269132	-0	1.7094	-0	0	0	0	-0.0018187	0	-0.000229679	0	0	0
2.79	43.4021	992.773	-31.2965	0.821363	0	-0.268732	-0	1.52183	-0	0	0	0	-0.00181872	0	-0.000229698	0	0	0
2.8	59.9807	938.68	-20.4773	0.805348	0	-0.26894	-0	1.44054	-0	0	0	0	-0.00181874	0	-0.000229718	0	0	0
2.81	75.3544	881.059	-7.39464	0.788394	0	-0.269765	-0	1.51393	-0	0	0	0	-0.00181876	0	-0.000229737	0	0	0
2.82	86.7893	817.669	3.49499	0.770851	0	-0.271004	-0	1.76924	-0	0	0	0	-0.00181878	0	-0.000229756	0	0	0
2.83	94.6105	749.026	13.8041	0.753053	0	-0.272228	-0	2.14367	-0	0	0	0	-0.0018188	0	-0.000229775	0	0	0
2.84	99.6582	675.717	22.8754	0.735314	0	-0.272969	-0	2.46956	-0	0	0	0	-0.00181882	0	-0.000229793	0	0	0
2.85	100.134	596.182	27.7238	0.717876	0	-0.272934	-0	2.57799	-0	0	0	0	-0.00181884	0	-0.000229812	0	0	0
2.86	94.1892	509.315	27.7426	0.700876	0	-0.272113	-0	2.45798	-0	0	0	0	-0.00181886	0	-0.00022983	0	0	0
2.87	82.9061	416.841	24.7959	0.684795	0	-0.270811	-0	2.30058	-0	0	0	0	-0.00181888	0	-0.000229849	0	0	0
2.88	69.3282	326.489	18.8896	0.671555	0	-0.269638	-0	2.32374	-0	0	0	0	-0.0018189	0	-0.000229867	0	0	0
2.89	57.274	247.744	9.41293	0.664471	0	-0.269151	-0	2.51453	-0	0	0	0	-0.00181892	0	-0.000229885	0	0	0
2.9	49.2696	185.379	0.740952	0.662487	0	-0.26855	-0	2.58202	-0	0	0	0	-0.00181894	0	-0.000229902	0	0	0
2.91	43.1153	139.53	-2.55269	0.648115	0	-0.264082	-0	2.22176	-0	0	0	0	-0.00181896	0	-0.00022992	0	0	0
2.92	0	0	0	-0.001819	0	-0.000229768	0	0	0	0	0	0	-0.00181898	0	-0.000229937	0	0	0
2.93	0	0	0	-0.00181902	0	-0.000229784	0	0	0	0	0	0	-0.001819	0	-0.000229955	0	0	0
2.94	0	0	0	-0.00181904	0	-0.0002298	0	0	0	0	0	0	-0.00181902	0	-0.000229972	0	0	0
2.95	0	0	0	-0.00181906	0	-0.000229816	0	0	0	0	0	0	-0.00181903	0	-0.000229989	0	0	0
2.96	0	0	0	-0.00181908	0	-0.000229832	0	0	0	20.4843	182.947	-8.79585	0.957717	0	-0.329864	0	-1.18827	0
2.97	0	0	0	-0.0018191	0	-0.000229847	0	0	0	34.9324	354.343	-19.6038	1.02101	0	-0.332327	0	-1.53724	0
2.98	0	0	0	-0.00181911	0	-0.000229863	0	0	0	26.2455	566.764	-22.4646	1.04122	0	-0.331224	0	-1.50623	0
2.99	0	0	0	-0.00181913	0	-0.000229878	0	0	0	-10.862	712.225	-15.5466	1.04904	0	-0.330753	0	-1.01012	0
3	0	0	0	-0.00181915	0	-0.000229893	0	0	0	-49.9257	763.718	-24.6249	1.0507	0	-0.332073	0	-0.241092	0
3.01	0	0	0	-0.00181917	0	-0.000229908	0	0	0	-78.5264	783.576	-34.3636	1.04673	0	-0.335241	-0	0.509163	-0
3.02	0	0	0	-0.00181918	0	-0.000229922	0	0	0	-100.99	833.032	-12.8212	1.03731	0	-0.339152	-0	0.985162	-0
3.03	0	0	0	-0.0018192	0	-0.000229937	0	0	0	-115.617	917.323	18.8984	1.02429	0	-0.342334	-0	1.01105	-0
3.04	0	0	0	-0.00181922	0	-0.000229951	0	0	0	-116.475	1006.41	27.5277	1.01002	0	-0.34428	-0	0.585067	-0
3.05	0	0	0	-0.00181923	0	-0.000229965	0	0	0	-105.335	1080.09	22.893	0.995549	0	-0.345395	0	-0.05946	0
3.06	0	0	0	-0.00181925	0	-0.000229979	0	0	0	-89.9204	1134.08	24.2705	0.980926	0	-0.346235	0	-0.600712	0
3.07	0	0	0	-0.00181926	0	-0.000229993	0	0	0	-76.1862	1167.62	29.5851	0.966159	0	-0.347186	0	-0.869991	0
3.08	0	0	0	-0.00181928	0	-0.000230006	0	0	0	-66.2685	1181.12	36.9516	0.951348	0	-0.348398	0	-0.913495	0
3.09	0	0	0	-0.0018193	0	-0.00023002	0	0	0	-56.6526	1179.85	42.923	0.936523	0	-0.349801	0	-0.836577	0
3.1	0	0	0	-0.00181931	0	-0.000230033	0	0	0	-44.7742	1168.15	46.7769	0.921688	0	-0.351201	0	-0.658804	0
3.11	0	0	0	-0.00181933	0	-0.000230046	0	0	0	-29.8624	1147.8	50.6691	0.906968	0	-0.352413	0	-0.343986	0
3.12	0	0	0	-0.00181934	0	-0.000230059	0	0	0	-13.2539	1118.34	52.3686	0.89254	0	-0.353337	-0	0.081392	-0
3.13	0	0	0	-0.00181936	0	-0.000230071	0	0	0	1.8991	1078.61	52.3451	0.878354	0	-0.35393	-0	0.49827	-0
3.14	0	0	0	-0.00181937	0	-0.000230083	0	0	0	16.8878	1031.84	51.5848	0.863976	0	-0.354162	-0	0.789677	-0
3.15	0	0	0	-0.00181938	0	-0.000230096	0	0	0	33.8861	981.402	49.3279	0.848906	0	-0.354034	-0	0.938764	-0
3.16	0	0	0	-0.0018194	0	-0.000230107	0	0	0	50.9313	925.916	42.1487	0.832929	0	-0.353567	-0	1.01463	-0
3.17	0	0	0	-0.00181941	0	-0.000230119	0	0	0	66.667	863.775	28.4131	0.816126	0	-0.352722	-0	1.06785	-0
3.18	0	0	0	-0.00181942	0	-0.000230131	0	0	0	79.5781	796.258	15.2777	0.798749	0	-0.3514	-0	1.05955	-0
3.19	0	0	0	-0.00181944	0	-0.000230142	0	0	0	87.9385	724.629	8.55537	0.781091	0	-0.34963	-0	0.897262	-0
3.2	0	0	0	-0.00181945	0	-0.000230153	0	0	0	92.468	648.449	2.00779	0.763307	0	-0.347726	-0	0.530131	-0
3.21	0	0	0	-0.00181946	0	-0.000230164	0	0	0	93.9252	567.925	-8.76891	0.745432	0	-0.346157	-0	0.036524	-0
3.22	0	0	0	-0.00181947	0	-0.000230174	0	0	0	90.4487	484.94	-15.4919	0.72758	0	-0.345287	0	-0.332908	0
3.23	0	0	0	-0.00181949	0	-0.000230185	0	0	0	81.1891	402.714	-13.2683	0.71028	0	-0.345199	0	-0.272366	0
